<mxfile host="app.diagrams.net" modified="2024-05-13T22:20:39.019Z" agent="Mozilla/5.0 (Windows NT 10.0; Win64; x64) AppleWebKit/537.36 (KHTML, like Gecko) Chrome/124.0.0.0 Safari/537.36" etag="hiZUdhPn_C-m40XVVJdI" version="24.4.0" type="device">
  <diagram id="C5RBs43oDa-KdzZeNtuy" name="Page-1">
    <mxGraphModel dx="2665" dy="994" grid="1" gridSize="10" guides="1" tooltips="1" connect="1" arrows="1" fold="1" page="1" pageScale="1" pageWidth="827" pageHeight="1169" math="0" shadow="0">
      <root>
        <mxCell id="WIyWlLk6GJQsqaUBKTNV-0" />
        <mxCell id="WIyWlLk6GJQsqaUBKTNV-1" parent="WIyWlLk6GJQsqaUBKTNV-0" />
        <mxCell id="doYjt0I-bv-tzujPuIN1-162" value="&lt;font style=&quot;font-size: 14px;&quot;&gt;Початок&lt;/font&gt;" style="rounded=1;whiteSpace=wrap;html=1;arcSize=50;" parent="WIyWlLk6GJQsqaUBKTNV-1" vertex="1">
          <mxGeometry x="-485" width="142" height="40" as="geometry" />
        </mxCell>
        <mxCell id="doYjt0I-bv-tzujPuIN1-163" value="&lt;font style=&quot;font-size: 14px;&quot;&gt;Кінець&lt;/font&gt;" style="rounded=1;whiteSpace=wrap;html=1;arcSize=50;" parent="WIyWlLk6GJQsqaUBKTNV-1" vertex="1">
          <mxGeometry x="-485" y="933" width="142" height="40" as="geometry" />
        </mxCell>
        <mxCell id="doYjt0I-bv-tzujPuIN1-175" value="Обмін місяцми буферів glfw" style="shape=process;whiteSpace=wrap;html=1;backgroundOutline=1;" parent="WIyWlLk6GJQsqaUBKTNV-1" vertex="1">
          <mxGeometry x="-474" y="829" width="120" height="60" as="geometry" />
        </mxCell>
        <mxCell id="doYjt0I-bv-tzujPuIN1-209" style="edgeStyle=orthogonalEdgeStyle;rounded=0;orthogonalLoop=1;jettySize=auto;html=1;entryX=0.5;entryY=0;entryDx=0;entryDy=0;" parent="WIyWlLk6GJQsqaUBKTNV-1" edge="1">
          <mxGeometry relative="1" as="geometry">
            <mxPoint x="-414.17" y="889" as="sourcePoint" />
            <mxPoint x="-414.17" y="932" as="targetPoint" />
          </mxGeometry>
        </mxCell>
        <mxCell id="IGiyjCsBwK7ziJwL-YGV-0" value="&lt;font style=&quot;font-size: 11px;&quot;&gt;Оновлення ширини та висоти вьюпорту&lt;/font&gt;" style="shape=process;whiteSpace=wrap;html=1;backgroundOutline=1;" vertex="1" parent="WIyWlLk6GJQsqaUBKTNV-1">
          <mxGeometry x="-474" y="84" width="120" height="60" as="geometry" />
        </mxCell>
        <mxCell id="IGiyjCsBwK7ziJwL-YGV-1" style="edgeStyle=orthogonalEdgeStyle;rounded=0;orthogonalLoop=1;jettySize=auto;html=1;entryX=0.5;entryY=0;entryDx=0;entryDy=0;" edge="1" parent="WIyWlLk6GJQsqaUBKTNV-1">
          <mxGeometry relative="1" as="geometry">
            <mxPoint x="-414.14000000000004" y="40" as="sourcePoint" />
            <mxPoint x="-414.14000000000004" y="83" as="targetPoint" />
          </mxGeometry>
        </mxCell>
        <mxCell id="IGiyjCsBwK7ziJwL-YGV-2" style="edgeStyle=orthogonalEdgeStyle;rounded=0;orthogonalLoop=1;jettySize=auto;html=1;entryX=0.5;entryY=0;entryDx=0;entryDy=0;" edge="1" parent="WIyWlLk6GJQsqaUBKTNV-1">
          <mxGeometry relative="1" as="geometry">
            <mxPoint x="-415.21000000000004" y="248" as="sourcePoint" />
            <mxPoint x="-415.21000000000004" y="291" as="targetPoint" />
          </mxGeometry>
        </mxCell>
        <mxCell id="IGiyjCsBwK7ziJwL-YGV-5" value="&lt;font style=&quot;font-size: 10px;&quot;&gt;Список об&#39;єктів закінчився?&lt;/font&gt;" style="rhombus;whiteSpace=wrap;html=1;" vertex="1" parent="WIyWlLk6GJQsqaUBKTNV-1">
          <mxGeometry x="-475" y="291" width="120" height="60" as="geometry" />
        </mxCell>
        <mxCell id="IGiyjCsBwK7ziJwL-YGV-6" value="Викликик делегату для оновлення об&#39;єкта" style="shape=process;whiteSpace=wrap;html=1;backgroundOutline=1;" vertex="1" parent="WIyWlLk6GJQsqaUBKTNV-1">
          <mxGeometry x="-646" y="291" width="120" height="60" as="geometry" />
        </mxCell>
        <mxCell id="IGiyjCsBwK7ziJwL-YGV-8" style="edgeStyle=orthogonalEdgeStyle;rounded=0;orthogonalLoop=1;jettySize=auto;html=1;" edge="1" parent="WIyWlLk6GJQsqaUBKTNV-1">
          <mxGeometry relative="1" as="geometry">
            <mxPoint x="-415.17" y="351" as="sourcePoint" />
            <mxPoint x="-415" y="413" as="targetPoint" />
          </mxGeometry>
        </mxCell>
        <mxCell id="IGiyjCsBwK7ziJwL-YGV-9" value="Так" style="edgeLabel;html=1;align=center;verticalAlign=middle;resizable=0;points=[];" vertex="1" connectable="0" parent="IGiyjCsBwK7ziJwL-YGV-8">
          <mxGeometry x="-0.1752" relative="1" as="geometry">
            <mxPoint as="offset" />
          </mxGeometry>
        </mxCell>
        <mxCell id="IGiyjCsBwK7ziJwL-YGV-10" style="edgeStyle=orthogonalEdgeStyle;rounded=0;orthogonalLoop=1;jettySize=auto;html=1;entryX=1;entryY=0.5;entryDx=0;entryDy=0;" edge="1" parent="WIyWlLk6GJQsqaUBKTNV-1">
          <mxGeometry relative="1" as="geometry">
            <mxPoint x="-475" y="320.8299999999999" as="sourcePoint" />
            <mxPoint x="-526" y="320.8299999999999" as="targetPoint" />
          </mxGeometry>
        </mxCell>
        <mxCell id="IGiyjCsBwK7ziJwL-YGV-11" value="Ні" style="edgeLabel;html=1;align=center;verticalAlign=middle;resizable=0;points=[];" vertex="1" connectable="0" parent="IGiyjCsBwK7ziJwL-YGV-10">
          <mxGeometry x="-0.0451" y="-1" relative="1" as="geometry">
            <mxPoint as="offset" />
          </mxGeometry>
        </mxCell>
        <mxCell id="IGiyjCsBwK7ziJwL-YGV-12" style="edgeStyle=orthogonalEdgeStyle;rounded=0;orthogonalLoop=1;jettySize=auto;html=1;" edge="1" parent="WIyWlLk6GJQsqaUBKTNV-1">
          <mxGeometry relative="1" as="geometry">
            <mxPoint x="-416" y="268" as="targetPoint" />
            <mxPoint x="-586" y="291" as="sourcePoint" />
            <Array as="points">
              <mxPoint x="-586" y="268" />
            </Array>
          </mxGeometry>
        </mxCell>
        <mxCell id="IGiyjCsBwK7ziJwL-YGV-21" style="rounded=0;orthogonalLoop=1;jettySize=auto;html=1;entryX=1;entryY=0.5;entryDx=0;entryDy=0;endArrow=none;endFill=0;startArrow=classic;startFill=1;" edge="1" parent="WIyWlLk6GJQsqaUBKTNV-1">
          <mxGeometry relative="1" as="geometry">
            <mxPoint x="-303" y="443.86" as="sourcePoint" />
            <mxPoint x="-355" y="443.86" as="targetPoint" />
          </mxGeometry>
        </mxCell>
        <mxCell id="IGiyjCsBwK7ziJwL-YGV-22" value="Ні" style="edgeLabel;html=1;align=center;verticalAlign=middle;resizable=0;points=[];" vertex="1" connectable="0" parent="IGiyjCsBwK7ziJwL-YGV-21">
          <mxGeometry x="-0.0451" y="-1" relative="1" as="geometry">
            <mxPoint as="offset" />
          </mxGeometry>
        </mxCell>
        <mxCell id="IGiyjCsBwK7ziJwL-YGV-23" value="&lt;font style=&quot;font-size: 10px;&quot;&gt;Список об&#39;єктів закінчився?&lt;/font&gt;" style="rhombus;whiteSpace=wrap;html=1;" vertex="1" parent="WIyWlLk6GJQsqaUBKTNV-1">
          <mxGeometry x="-475" y="414" width="120" height="60" as="geometry" />
        </mxCell>
        <mxCell id="IGiyjCsBwK7ziJwL-YGV-30" style="edgeStyle=orthogonalEdgeStyle;rounded=0;orthogonalLoop=1;jettySize=auto;html=1;" edge="1" parent="WIyWlLk6GJQsqaUBKTNV-1">
          <mxGeometry relative="1" as="geometry">
            <mxPoint x="-414" y="393" as="targetPoint" />
            <mxPoint x="-240" y="414" as="sourcePoint" />
            <Array as="points">
              <mxPoint x="-240" y="393" />
              <mxPoint x="-414" y="393" />
            </Array>
          </mxGeometry>
        </mxCell>
        <mxCell id="IGiyjCsBwK7ziJwL-YGV-25" value="Відображення об&#39;єкта" style="shape=process;whiteSpace=wrap;html=1;backgroundOutline=1;" vertex="1" parent="WIyWlLk6GJQsqaUBKTNV-1">
          <mxGeometry x="-302" y="414" width="120" height="60" as="geometry" />
        </mxCell>
        <mxCell id="IGiyjCsBwK7ziJwL-YGV-27" style="edgeStyle=orthogonalEdgeStyle;rounded=0;orthogonalLoop=1;jettySize=auto;html=1;entryX=0.5;entryY=0;entryDx=0;entryDy=0;" edge="1" parent="WIyWlLk6GJQsqaUBKTNV-1">
          <mxGeometry relative="1" as="geometry">
            <mxPoint x="-415.14000000000004" y="474" as="sourcePoint" />
            <mxPoint x="-415.14000000000004" y="517" as="targetPoint" />
          </mxGeometry>
        </mxCell>
        <mxCell id="IGiyjCsBwK7ziJwL-YGV-28" value="Так" style="edgeLabel;html=1;align=center;verticalAlign=middle;resizable=0;points=[];" vertex="1" connectable="0" parent="IGiyjCsBwK7ziJwL-YGV-27">
          <mxGeometry x="-0.2817" relative="1" as="geometry">
            <mxPoint as="offset" />
          </mxGeometry>
        </mxCell>
        <mxCell id="IGiyjCsBwK7ziJwL-YGV-31" value="Обчислення delta_time" style="shape=process;whiteSpace=wrap;html=1;backgroundOutline=1;" vertex="1" parent="WIyWlLk6GJQsqaUBKTNV-1">
          <mxGeometry x="-474" y="518" width="120" height="60" as="geometry" />
        </mxCell>
        <mxCell id="IGiyjCsBwK7ziJwL-YGV-32" style="edgeStyle=orthogonalEdgeStyle;rounded=0;orthogonalLoop=1;jettySize=auto;html=1;entryX=1;entryY=0.5;entryDx=0;entryDy=0;" edge="1" parent="WIyWlLk6GJQsqaUBKTNV-1" source="IGiyjCsBwK7ziJwL-YGV-34">
          <mxGeometry relative="1" as="geometry">
            <Array as="points">
              <mxPoint x="-325" y="652" />
              <mxPoint x="-325" y="858" />
            </Array>
            <mxPoint x="-354" y="858" as="targetPoint" />
          </mxGeometry>
        </mxCell>
        <mxCell id="IGiyjCsBwK7ziJwL-YGV-33" value="Ні" style="edgeLabel;html=1;align=center;verticalAlign=middle;resizable=0;points=[];" vertex="1" connectable="0" parent="IGiyjCsBwK7ziJwL-YGV-32">
          <mxGeometry x="-0.0374" relative="1" as="geometry">
            <mxPoint as="offset" />
          </mxGeometry>
        </mxCell>
        <mxCell id="IGiyjCsBwK7ziJwL-YGV-34" value="&lt;p style=&quot;line-height: 90%;&quot;&gt;&lt;font style=&quot;font-size: 9px;&quot;&gt;delta_time &amp;lt; MIN_DELTA_TIME ?&lt;/font&gt;&lt;/p&gt;" style="rhombus;whiteSpace=wrap;html=1;" vertex="1" parent="WIyWlLk6GJQsqaUBKTNV-1">
          <mxGeometry x="-474" y="622" width="120" height="60" as="geometry" />
        </mxCell>
        <mxCell id="IGiyjCsBwK7ziJwL-YGV-35" style="edgeStyle=orthogonalEdgeStyle;rounded=0;orthogonalLoop=1;jettySize=auto;html=1;entryX=0.5;entryY=0;entryDx=0;entryDy=0;" edge="1" parent="WIyWlLk6GJQsqaUBKTNV-1">
          <mxGeometry relative="1" as="geometry">
            <mxPoint x="-414.1700000000001" y="578" as="sourcePoint" />
            <mxPoint x="-414.1700000000001" y="621" as="targetPoint" />
          </mxGeometry>
        </mxCell>
        <mxCell id="IGiyjCsBwK7ziJwL-YGV-36" style="edgeStyle=orthogonalEdgeStyle;rounded=0;orthogonalLoop=1;jettySize=auto;html=1;entryX=0.5;entryY=0;entryDx=0;entryDy=0;" edge="1" parent="WIyWlLk6GJQsqaUBKTNV-1">
          <mxGeometry relative="1" as="geometry">
            <mxPoint x="-414.1700000000001" y="682" as="sourcePoint" />
            <mxPoint x="-414.1700000000001" y="725" as="targetPoint" />
          </mxGeometry>
        </mxCell>
        <mxCell id="IGiyjCsBwK7ziJwL-YGV-37" value="Так" style="edgeLabel;html=1;align=center;verticalAlign=middle;resizable=0;points=[];" vertex="1" connectable="0" parent="IGiyjCsBwK7ziJwL-YGV-36">
          <mxGeometry x="-0.1256" y="1" relative="1" as="geometry">
            <mxPoint as="offset" />
          </mxGeometry>
        </mxCell>
        <mxCell id="IGiyjCsBwK7ziJwL-YGV-38" value="&lt;span style=&quot;font-size: 9px;&quot;&gt;delta_time = MIN_DELTA_TIME&lt;/span&gt;" style="rounded=0;whiteSpace=wrap;html=1;" vertex="1" parent="WIyWlLk6GJQsqaUBKTNV-1">
          <mxGeometry x="-474" y="726" width="120" height="60" as="geometry" />
        </mxCell>
        <mxCell id="IGiyjCsBwK7ziJwL-YGV-39" style="edgeStyle=orthogonalEdgeStyle;rounded=0;orthogonalLoop=1;jettySize=auto;html=1;entryX=0.5;entryY=0;entryDx=0;entryDy=0;" edge="1" parent="WIyWlLk6GJQsqaUBKTNV-1">
          <mxGeometry relative="1" as="geometry">
            <mxPoint x="-414.1700000000001" y="786" as="sourcePoint" />
            <mxPoint x="-414.1700000000001" y="829" as="targetPoint" />
          </mxGeometry>
        </mxCell>
        <mxCell id="IGiyjCsBwK7ziJwL-YGV-40" style="edgeStyle=orthogonalEdgeStyle;rounded=0;orthogonalLoop=1;jettySize=auto;html=1;entryX=0.5;entryY=0;entryDx=0;entryDy=0;" edge="1" parent="WIyWlLk6GJQsqaUBKTNV-1">
          <mxGeometry relative="1" as="geometry">
            <mxPoint x="-414.17" y="144" as="sourcePoint" />
            <mxPoint x="-414.17" y="187" as="targetPoint" />
          </mxGeometry>
        </mxCell>
        <mxCell id="IGiyjCsBwK7ziJwL-YGV-41" value="Очищення буферів кольору та глибини&amp;nbsp;" style="shape=process;whiteSpace=wrap;html=1;backgroundOutline=1;" vertex="1" parent="WIyWlLk6GJQsqaUBKTNV-1">
          <mxGeometry x="-474" y="188" width="120" height="60" as="geometry" />
        </mxCell>
      </root>
    </mxGraphModel>
  </diagram>
</mxfile>
